<?xml version="1.0" standalone="no"?><!DOCTYPE svg PUBLIC "-//W3C//DTD SVG 1.1//EN" "http://www.w3.org/Graphics/SVG/1.1/DTD/svg11.dtd"><svg t="1652581520563" class="icon" viewBox="0 0 1024 1024" version="1.1" xmlns="http://www.w3.org/2000/svg" p-id="2265" xmlns:xlink="http://www.w3.org/1999/xlink" width="200" height="200"><defs><style type="text/css">@font-face { font-family: feedback-iconfont; src: url("//at.alicdn.com/t/font_1031158_u69w8yhxdu.woff2?t=1630033759944") format("woff2"), url("//at.alicdn.com/t/font_1031158_u69w8yhxdu.woff?t=1630033759944") format("woff"), url("//at.alicdn.com/t/font_1031158_u69w8yhxdu.ttf?t=1630033759944") format("truetype"); }
</style></defs><path d="M678.2 431.9c-79.4-127.2-204.5-200.3-295.5-239.2-21.8-9.3-44.2-17.8-66.8-25.4 22.4 33.4 47 76.5 67.5 128.3 33.5 84.7 49.5 174.8 47.5 268-1.9 86.2-19.7 176.1-53 267.9l303.7-394c-1.2-1.8-2.2-3.7-3.4-5.6zM278.1 693.9c-93.3-44-170.6-56.5-173.9-57-1.8-0.3-3.6 0.6-4.4 2.3-0.8 1.7-0.5 3.4 0.9 4.7 0.8 0.8 78.3 75.3 114.2 210.2L279 694.3c-0.2-0.2-0.6-0.2-0.9-0.4z" fill="#FFD524" p-id="2266"></path><path d="M378 459.6c-38.2-43.2-83.8-67.3-123.4-80.6 14 27.3 25.9 56.5 35.6 87.2 19.6 62.6 29 129.2 27.9 197.9-0.2 12.3-0.9 24.7-1.8 37.2l70-236.6c-3.2-0.9-6-2.6-8.3-5.1z" fill="#FFD524" p-id="2267"></path><path d="M942.8 872.5h-18.5c-22.9-38.2-27.6-73.6-13.8-105.3 11.4-26.4 32.1-41.9 32.1-41.9 15-10.6 20.7-29.9 13.8-46.9-6.9-17-24.3-26.9-42.5-24.1-0.1 0-9.2 1.4-25.1 5-22.1-55.2-24.6-111.1-7.3-166.2 14.1-45.1 36.7-73.2 37.5-74.2 9.7-11.5 12-27.9 5.8-41.6-6.2-13.7-20-22.8-35.1-23.1-1.5 0-36.1-0.7-78.5 6-45.7 7.1-83.3 19.9-111.6 37.9l-0.9 0.6c-84.4-126-210-199-302.1-238.4-39.2-16.8-80-30.9-121.3-42-7.3-2-15.1 1-19.3 7.3-4.2 6.4-3.8 14.7 1 20.6 26.6 33.3 64.5 88.5 93.7 162.3 13.5 34.1 24 69.2 31.4 105-53.7-49.4-115.3-70.7-160.1-79.8-6.9-1.4-13.9 1.4-18 7.2-4 5.8-4.2 13.4-0.5 19.3 21.8 35 39.6 74.1 52.9 116.3 17.9 57.1 26.8 117.9 26.3 180.7-93.3-42.3-169.9-54.7-173.2-55.2-17.2-2.7-33.8 6-41.5 21.6-7.6 15.5-4.2 33.9 8.3 45.7 0.8 0.7 75.3 73.5 107 203.1h-39.6c-9.7 0-17.6 7.9-17.6 17.6s7.9 17.6 17.6 17.6h798.9c9.7 0 17.6-7.9 17.6-17.6s-7.7-17.5-17.4-17.5z m-723.2 0c-1.4-6.3-3.1-12.4-4.7-18.4C179 719.2 101.5 644.7 100.7 643.9c-1.4-1.3-1.7-3-0.9-4.7 0.8-1.6 2.6-2.6 4.4-2.3 3.2 0.5 80.5 13 173.9 57 0.3 0.2 0.7 0.2 1 0.3 0.8 0.3 1.6 0.7 2.4 0.9-3.8 57.3-15.3 116.8-34.2 177.4h-27.7z m64.5 0c17.5-58.3 28.1-115.7 32.1-171.2 0.9-12.5 1.6-24.9 1.8-37.2 1.1-68.8-8.2-135.4-27.9-197.9-9.6-30.7-21.5-59.9-35.6-87.2 39.7 13.4 85.3 37.4 123.4 80.6 2.3 2.6 5.1 4.3 8.2 5.2 1.5 0.4 3 0.8 4.6 0.8 4 32 5.6 64.5 4.9 97.4-2.1 98.8-26.3 202.9-71.7 309.6h-39.8z m479-124.6c-2 61.1-13.2 106.9-18.2 124.6H362.1c5.6-13.7 10.9-27.3 15.8-40.9 33.3-91.8 51.1-181.7 53-267.9 2-93.2-14-183.3-47.5-268-20.5-51.8-45-94.9-67.5-128.3 22.7 7.6 45 16.1 66.8 25.4 91 38.9 216 112 295.5 239.2 1.2 1.9 2.2 3.8 3.4 5.7 71.6 117.7 84 233.4 81.5 310.2z m18.3 124.6c6-23.5 15.1-67.7 16.9-123.5 2.6-79.6-9.7-198.5-81-320.4 0.4-0.2 0.8-0.5 1.2-0.7 24.2-15.4 57.3-26.5 98.2-32.9 39.3-6.1 71-5.5 72.4-5.5 1.6 0 3.1 1 3.7 2.5 0.7 1.5 0.4 3.2-0.8 4.7-2.8 3.5-28.2 35.5-44 86.1-21.3 68.1-16.4 136.9 14.6 204.6 3.5 7.7 12 11.8 20.3 9.7 22.8-5.7 36.3-7.8 36.5-7.9 2-0.3 3.8 0.7 4.5 2.5 0.7 1.8 0.1 3.8-1.5 5-1.2 0.8-28.5 20.6-44.1 56.6-16.2 37.4-14.1 77.4 6.1 119.3h-103z" fill="#6B400D" p-id="2268"></path></svg>