<?xml version="1.0" standalone="no"?><!DOCTYPE svg PUBLIC "-//W3C//DTD SVG 1.1//EN" "http://www.w3.org/Graphics/SVG/1.1/DTD/svg11.dtd"><svg t="1652581579695" class="icon" viewBox="0 0 1024 1024" version="1.1" xmlns="http://www.w3.org/2000/svg" p-id="3149" xmlns:xlink="http://www.w3.org/1999/xlink" width="200" height="200"><defs><style type="text/css">@font-face { font-family: feedback-iconfont; src: url("//at.alicdn.com/t/font_1031158_u69w8yhxdu.woff2?t=1630033759944") format("woff2"), url("//at.alicdn.com/t/font_1031158_u69w8yhxdu.woff?t=1630033759944") format("woff"), url("//at.alicdn.com/t/font_1031158_u69w8yhxdu.ttf?t=1630033759944") format("truetype"); }
</style></defs><path d="M873.972093 315.137984H385.786047c-3.968992 0-8.731783-1.587597-11.906977-4.76279-3.175194-3.175194-4.762791-7.144186-3.968992-11.906977C377.054264 160.347287 491.36124 51.596899 630.275969 51.596899s252.427907 107.956589 260.365891 246.871318c0 3.968992-1.587597 8.731783-3.968992 11.906977-3.968992 3.175194-7.937984 4.762791-12.700775 4.76279z m-470.722481-31.751937h453.258915C843.013953 169.872868 746.170543 83.348837 630.275969 83.348837S417.537984 169.872868 403.249612 283.386047z" p-id="3150"></path><path d="M450.083721 254.015504c-0.793798 0-1.587597 0-2.381395-0.793799-3.968992-1.587597-6.350388-6.350388-4.762791-10.319379 28.576744-77.792248 103.987597-130.976744 187.336434-130.976745 4.762791 0 7.937984 3.175194 7.937984 7.937985s-3.175194 7.937984-7.937984 7.937984c-76.99845 0-146.058915 48.421705-172.254264 119.863566-1.587597 4.762791-3.968992 6.350388-7.937984 6.350388zM630.275969 83.348837c-8.731783 0-15.875969-7.144186-15.875969-15.875969V32.545736c0-8.731783 7.144186-15.875969 15.875969-15.875969s15.875969 7.144186 15.875969 15.875969V67.472868c0 8.731783-7.144186 15.875969-15.875969 15.875969zM904.136434 369.116279h-547.72093c-8.731783 0-15.875969-7.144186-15.875969-15.875969s7.144186-15.875969 15.875969-15.875969h547.72093c8.731783 0 15.875969 7.144186 15.875969 15.875969s-7.144186 15.875969-15.875969 15.875969z" p-id="3151"></path><path d="M663.615504 31.751938h-66.67907c-8.731783 0-15.875969-7.144186-15.875969-15.875969s7.144186-15.875969 15.875969-15.875969h66.67907c8.731783 0 15.875969 7.144186 15.875969 15.875969s-7.144186 15.875969-15.875969 15.875969zM265.128682 803.324031c-7.937984 0-14.288372-5.556589-15.875969-13.494574L141.296124 123.832558H28.576744c-8.731783 0-15.875969-7.144186-15.875969-15.875969s7.144186-15.875969 15.875969-15.875969H154.790698c7.937984 0 14.288372 5.556589 15.875969 13.494574l110.337984 679.491473c1.587597 8.731783-4.762791 16.669767-13.494573 18.257364h-2.381396zM367.528682 858.889922c-8.731783 0-15.875969-7.144186-15.875969-15.875969v-55.565891c0-8.731783 7.144186-15.875969 15.875969-15.875969s15.875969 7.144186 15.875969 15.875969v55.565891c0 8.731783-7.144186 15.875969-15.875969 15.875969zM893.023256 858.889922c-8.731783 0-15.875969-7.144186-15.875969-15.875969v-55.565891c0-8.731783 7.144186-15.875969 15.875969-15.875969s15.875969 7.144186 15.875969 15.875969v55.565891c0 8.731783-7.144186 15.875969-15.875969 15.875969z" p-id="3152"></path><path d="M995.423256 803.324031h-730.294574c-7.937984 0-14.288372-5.556589-15.875969-13.494574l-61.916279-381.817054c-0.793798-4.762791 0.793798-9.525581 3.968992-12.700775s7.144186-5.556589 11.906977-5.556589h792.210853c8.731783 0 15.875969 7.144186 15.875969 15.875969v381.817054c0 8.731783-7.144186 15.875969-15.875969 15.875969z m-716.8-31.751938h700.924031V421.506977H221.469767l57.153489 350.065116z" p-id="3153"></path><path d="M822.375194 631.863566c-44.452713 0-88.111628-7.937984-128.595349-24.607752-8.731783-3.968992-18.257364-7.937984-26.989147-11.906977-23.020155-10.31938-45.246512-20.63876-69.060465-23.813953-40.483721-5.556589-80.967442 9.525581-119.863566 24.607752l-13.494574 4.76279c-42.071318 15.875969-96.843411 30.95814-143.677519 10.31938-9.525581-3.968992-18.257364-9.525581-26.195349-15.08217-6.350388-3.968992-12.700775-7.937984-19.051163-11.113179-14.288372-7.144186-30.164341-11.113178-46.834109-12.700775-3.968992 0-6.350388-3.175194-7.144186-6.350387l-26.195348-160.347287c0-2.381395 0-4.762791 1.587597-6.350388 1.587597-1.587597 3.968992-3.175194 6.350387-3.175194h792.210853c4.762791 0 7.937984 3.175194 7.937984 7.937985v167.491473c0 2.381395-0.793798 4.762791-3.175193 6.350387-23.020155 19.051163-51.596899 30.95814-71.441861 37.308527-34.133333 11.906977-70.648062 16.669767-106.368992 16.669768z m-241.314729-76.204651c6.350388 0 12.700775 0 19.051163 1.587597 26.195349 3.175194 50.009302 14.288372 73.823256 24.607752 8.731783 3.968992 17.463566 7.937984 26.195349 11.113178 69.854264 28.576744 151.615504 30.95814 223.851162 7.937984 17.463566-5.556589 42.865116-15.875969 63.503876-31.751938V413.568992H212.737984l23.813954 145.265117c16.669767 1.587597 32.545736 6.350388 46.834109 13.494573 7.144186 3.968992 14.288372 7.937984 20.638759 11.906977 7.937984 4.762791 15.875969 10.31938 24.607752 13.494574 42.071318 18.257364 92.08062 3.968992 131.770543-10.31938l12.700775-4.762791c34.133333-13.494574 70.648062-26.989147 107.956589-26.989147zM893.023256 879.528682c30.95814 0 56.35969 25.40155 56.35969 56.35969 0 30.95814-25.40155 56.35969-56.35969 56.35969-30.95814 0-56.35969-25.40155-56.35969-56.35969 0-30.95814 25.40155-56.35969 56.35969-56.35969m0-31.751938c-48.421705 0-88.111628 39.689922-88.111628 88.111628s39.689922 88.111628 88.111628 88.111628 88.111628-39.689922 88.111628-88.111628-38.896124-88.111628-88.111628-88.111628zM367.528682 879.528682c30.95814 0 56.35969 25.40155 56.35969 56.35969 0 30.95814-25.40155 56.35969-56.35969 56.35969s-56.35969-25.40155-56.35969-56.35969c0-30.95814 24.607752-56.35969 56.35969-56.35969m0-31.751938c-48.421705 0-88.111628 39.689922-88.111628 88.111628s39.689922 88.111628 88.111628 88.111628 88.111628-39.689922 88.111628-88.111628-39.689922-88.111628-88.111628-88.111628z" p-id="3154"></path></svg>